PathFileType	4	(X/Y/Z)	C:/Users/opensim2020/Desktop/walking_exp_matlab/subject01_walking11_straight_04.trc																																																																																																																																		
DataRate	CameraRate	NumFrames	NumMarkers	Units	OrigDataRate	OrigDataStartFrame	OrigNumFrames																																																																																																																														
100	100	7	44	mm	100	4078	278																																																																																																																														
Frame#	Time	LFHD			RFHD			LBHD			RBHD			C7			T10			CLAV			STRN			RBAK			LSHO			LUPA			LELB			LFRM			LWRA			LWRB			LFIN			RSHO			RUPA			RELB			RFRM			RWRA			RWRB			RFIN			LASI			RASI			LPSI			RPSI			LTHI			LKNE			LTIB			LANK			LHEE			LTOE			RTHI			RKNE			RTIB			RANK			RHEE			RTOE			*39			*40			*41			*42			*43		
		X1	Y1	Z1	X2	Y2	Z2	X3	Y3	Z3	X4	Y4	Z4	X5	Y5	Z5	X6	Y6	Z6	X7	Y7	Z7	X8	Y8	Z8	X9	Y9	Z9	X10	Y10	Z10	X11	Y11	Z11	X12	Y12	Z12	X13	Y13	Z13	X14	Y14	Z14	X15	Y15	Z15	X16	Y16	Z16	X17	Y17	Z17	X18	Y18	Z18	X19	Y19	Z19	X20	Y20	Z20	X21	Y21	Z21	X22	Y22	Z22	X23	Y23	Z23	X24	Y24	Z24	X25	Y25	Z25	X26	Y26	Z26	X27	Y27	Z27	X28	Y28	Z28	X29	Y29	Z29	X30	Y30	Z30	X31	Y31	Z31	X32	Y32	Z32	X33	Y33	Z33	X34	Y34	Z34	X35	Y35	Z35	X36	Y36	Z36	X37	Y37	Z37	X38	Y38	Z38	X39	Y39	Z39	X40	Y40	Z40	X41	Y41	Z41	X42	Y42	Z42	X43	Y43	Z43	X44	Y44	Z44
																																																																																																																																					
209	2.08	411.76566	1662.88501	918.27899	459.46851	1670.1366	1022.36981	299.60117	1629.65515	963.83405	347.40009	1637.51501	1075.23267	259.8522	1431.90649	996.08563	224.33598	1138.36426	1013.77875	402.69879	1363.7843	999.84442	446.90869	1209.21594	1001.22937	201.05835	1238.34863	1076.08228	344.42752	1391.15186	836.7807	323.68774	1203.61255	756.89233	320.54422	1052.51501	760.479	367.66064	949.63654	733.6983	457.80972	842.5061	748.20587	402.90897	832.66718	725.88068	457.05237	767.31049	714.32397	331.36765	1396.19666	1147.52551	272.92682	1198.63513	1252.22168	277.9733	1073.92395	1257.85071	307.7377	958.75635	1292.87097	392.58759	843.59418	1279.99915	347.69962	844.78046	1318.09644	385.88547	765.77551	1317.06201	400.72968	933.30249	916.58453	391.44577	932.02716	1133.84106	211.37341	944.38794	962.48346	208.19574	942.0061	1108.08704	396.89563	603.32458	867.18866	399.0274	469.21271	888.27081	351.65079	283.51645	880.21759	322.28751	68.74677	938.72662	276.7381	38.83474	991.76019	468.76486	34.64415	935.89734	399.31567	602.45081	1204.60706	430.99408	448.55801	1190.68188	286.95969	350.31854	1183.68225	140.05971	208.16695	1132.33374	84.97289	209.51591	1074.91785	204.90744	80.85016	1136.69238	444.24588	1704.12622	1001.89319	-1973.11267	1023.64288	3101.90112	-2012.52832	1021.95728	3140.6897	NaN	NaN	NaN	NaN	NaN	NaN
210	2.09	418.20139	1662.95532	917.19403	466.18369	1670.10522	1020.98523	306.09421	1630.12097	963.40271	354.29501	1637.7666	1074.23596	266.05411	1432.13989	994.6485	230.28534	1138.66003	1012.53802	408.66232	1363.8252	998.87244	452.86395	1209.41345	1000.12372	207.03726	1238.66968	1074.87793	350.73941	1391.62451	835.77832	330.8049	1204.13855	755.60211	328.33682	1053.0946	758.91626	376.52643	950.59174	732.00397	468.04315	844.64709	745.95013	413.15671	834.07013	724.11407	468.06061	769.66901	712.00873	337.36426	1396.4668	1146.64636	278.19586	1198.8324	1250.88879	282.98178	1074.12622	1256.39563	311.81348	958.82446	1291.59009	395.81183	842.99701	1278.92529	350.8519	844.42548	1316.95288	388.25232	765.23535	1315.85486	406.3663	933.36963	915.00122	397.48193	933.02814	1132.08154	217.06306	944.49255	961.58722	214.33276	942.5332	1107.27405	400.94803	602.88287	866.62512	401.79929	468.64621	887.76489	352.55695	283.42133	880.15656	322.41919	68.73499	938.86737	276.73935	38.83595	991.86829	468.90848	34.57212	935.90204	409.11588	603.87854	1203.2738	443.23114	450.4671	1188.93835	301.10846	349.0658	1182.57385	156.49089	204.89523	1130.65613	101.08704	204.67192	1073.43152	225.34586	79.9084	1135.33618	450.97333	1704.08582	1000.51971	-1973.04456	1023.47565	3101.89893	-2012.46021	1022.0174	3140.74341	NaN	NaN	NaN	NaN	NaN	NaN
211	2.1	424.58145	1663.04773	916.22516	472.97174	1670.06543	1019.87262	312.60016	1630.50195	962.77795	361.13962	1637.99304	1073.54114	272.15097	1432.49609	994.11908	236.19801	1138.93787	1011.2926	414.77899	1364.02271	997.91425	458.82022	1209.51514	999.09772	212.94933	1238.95593	1073.7439	356.93744	1392.02051	834.84467	337.82257	1204.70361	754.39093	336.14026	1053.45837	757.52197	385.36462	951.60321	730.35376	478.27753	846.77002	743.83502	423.4455	835.49377	722.36761	479.09415	771.65503	709.94873	343.34738	1396.63904	1145.65613	283.47656	1198.99768	1249.61182	287.93411	1074.34265	1255.0509	315.83115	958.90393	1290.33569	399.12054	842.42065	1277.9873	354.01236	844.43372	1315.9646	390.79602	764.58301	1314.75269	411.97458	933.33496	913.50055	403.19153	933.66534	1130.5376	222.7775	944.60413	960.68866	220.40755	942.94446	1106.50745	404.80634	602.36115	866.04736	404.077	468.24106	887.28143	353.25696	283.35519	880.08417	322.57758	68.74511	938.92377	276.85461	39.019	991.96887	468.79623	34.25709	935.8244	418.81506	605.58331	1201.77148	455.35999	452.30344	1187.21375	315.49927	347.28159	1181.42078	173.4054	200.84625	1129.19495	117.55167	198.75749	1071.88977	246.43878	78.37341	1134.03516	457.85373	1704.1759	999.39606	-1973.02161	1023.30676	3102.0105	-2012.3938	1021.94092	3140.76611	NaN	NaN	NaN	NaN	NaN	NaN
212	2.11	431.04593	1663.14893	915.29675	479.79709	1669.9834	1018.83539	319.14008	1630.77478	962.08496	368.03281	1638.15088	1072.7168	278.43573	1432.74841	993.09344	242.12372	1139.20422	1010.01691	421.06448	1364.32056	996.97327	464.81979	1209.67993	998.04736	218.92181	1239.23853	1072.58655	363.20828	1392.42517	833.90607	344.73599	1205.25806	753.17609	343.94016	1053.95007	756.07349	394.19989	952.55597	728.79791	488.39844	848.91412	741.87616	433.52676	836.93079	720.97302	489.89581	773.85083	707.89697	349.44037	1396.71509	1144.755	288.77264	1199.19434	1248.43604	292.91333	1074.55457	1253.81091	319.98895	958.97711	1289.16663	402.51154	841.94977	1277.08582	357.31183	844.12836	1315.01624	393.42346	764.10364	1313.72546	417.68057	933.28058	912.08698	409.00858	934.28882	1129.07703	228.49063	944.64587	959.83002	226.48007	943.36633	1105.69055	408.41879	601.80865	865.47565	406.66946	467.56833	886.69214	353.9874	283.30197	879.94098	322.55447	68.65748	938.99396	277.49228	38.93965	992.44348	469.10394	34.2551	935.86072	428.61371	606.9397	1200.67615	467.20584	454.05661	1185.3916	329.97159	345.26227	1180.23792	191.0125	195.88902	1127.73523	134.92998	192.21324	1070.56287	268.15726	76.2383	1132.85925	464.78098	1704.25793	998.54749	-1973.02209	1023.28625	3101.91846	-2012.48694	1021.92737	3140.64233	NaN	NaN	NaN	NaN	NaN	NaN
213	2.12	437.48923	1663.21179	914.5238	486.59329	1669.92615	1017.81268	325.67227	1631.09009	961.68365	374.93591	1638.23792	1072.08789	284.74606	1432.96228	991.75867	248.08728	1139.43823	1008.73749	427.21783	1364.46423	996.08209	470.85693	1209.8064	997.05817	224.91223	1239.47021	1071.40015	369.45782	1392.8678	833.0451	351.5723	1205.80237	752.06274	351.58636	1054.51355	754.6637	402.89798	953.53009	727.33435	498.43048	851.09644	740.03174	443.68622	838.34778	719.23828	500.75031	776.1236	706.01788	355.53	1396.75	1143.72742	294.15103	1199.31763	1247.27832	297.8877	1074.77087	1252.63782	324.16751	959.08551	1288.09619	405.9693	841.51178	1276.36292	360.38956	843.93701	1313.66772	396.19855	763.58234	1312.77234	423.30127	933.13507	910.78943	414.88629	934.81775	1127.71375	234.28566	944.74609	959.02649	232.52238	943.70892	1104.98108	411.71469	601.29089	864.7981	408.89426	467.15768	886.01898	354.81613	283.23505	879.62445	322.75671	68.69498	939.15308	277.48019	39.06271	992.43835	469.23026	34.13891	935.80554	438.11508	608.55603	1199.63501	478.75964	455.76068	1183.69995	344.53653	342.86475	1178.94287	209.12009	190.33856	1126.57605	153.1395	184.83719	1069.48694	290.46576	73.75947	1131.96057	471.43347	1703.99329	997.52722	-1973.18433	1023.86963	3102.03564	-2012.44067	1021.94409	3140.62915	NaN	NaN	NaN	NaN	NaN	NaN
214	2.13	443.93329	1663.31836	913.76666	493.33267	1669.77039	1016.98035	332.24792	1631.32385	961.11639	381.82028	1638.2627	1071.5155	290.90045	1433.22314	991.30042	254.0842	1139.66003	1007.46582	433.30392	1364.41492	995.30206	476.88593	1209.89709	996.07898	230.95267	1239.65063	1070.24585	375.83505	1393.26343	832.18384	358.54706	1206.32813	750.91473	359.32443	1054.9325	753.24579	411.66177	954.47791	725.92511	508.38406	853.18488	738.4024	453.61673	839.77081	718.10687	511.51913	778.48566	704.16937	361.66049	1396.83264	1142.97192	299.58652	1199.42041	1246.18176	302.82187	1074.94568	1251.52673	328.34595	959.15265	1287.04529	409.55902	841.12372	1275.61401	364.02396	843.77386	1313.02051	399.15268	763.16302	1311.82507	429.05878	932.95496	909.61438	420.77927	935.23425	1126.40576	240.02571	944.77179	958.24994	238.63878	943.99506	1104.23242	414.81335	600.76923	864.07251	410.92758	466.67154	885.34277	355.75983	283.06888	879.26862	322.90298	68.71889	939.10559	277.55923	39.20831	992.4707	469.39426	33.98389	935.72119	447.2869	609.97559	1198.47668	490.05301	457.38333	1182.01904	359.17404	340.19757	1177.60767	227.8454	184.09781	1125.30603	171.70589	176.63994	1068.42334	313.47974	70.99979	1131.45874	478.31549	1704.00952	996.79315	-1973.02124	1023.39545	3101.93066	-2012.50562	1022.03729	3140.73999	NaN	NaN	NaN	NaN	NaN	NaN
215	2.14	450.48007	1663.34595	913.12097	500.25217	1669.61243	1016.16058	338.82242	1631.53784	960.68542	388.70184	1638.2644	1071.00525	297.1965	1433.40881	990.4939	260.07822	1139.83923	1006.19324	439.73239	1364.58679	994.4967	482.98898	1209.91479	995.17273	236.96042	1239.79272	1069.04932	382.21838	1393.58838	831.44006	365.32565	1206.77917	749.84552	367.01263	1055.33386	751.9353	420.47379	955.41669	724.5791	518.34674	855.30334	736.92548	463.72815	841.20868	716.67706	522.27759	780.73291	702.58105	367.74454	1396.8031	1142.1687	305.02313	1199.54858	1245.22375	307.75815	1075.09631	1250.51074	332.60806	959.20496	1286.12195	413.18402	840.70947	1274.92371	367.68933	843.61847	1312.08862	402.22021	762.76538	1311.03467	434.86032	932.67798	908.54102	426.75333	935.50732	1125.20325	245.8605	944.79785	957.50604	244.68982	944.30963	1103.57776	417.72195	600.34656	863.2713	412.42123	466.36517	884.65277	356.85345	282.9501	878.82648	323.10031	68.75877	939.09473	277.29938	39.24424	992.32635	469.48267	33.94485	935.65186	456.40204	611.29901	1197.26355	500.87582	458.90851	1180.44946	373.66782	337.47351	1176.5304	247.09976	177.35501	1124.24011	191.11555	167.62186	1067.24634	337.25244	68.11308	1131.25378	485.0567	1703.75061	996.09283	-1973.01453	1023.53937	3102.02173	-2012.50867	1022.00128	3140.6355	NaN	NaN	NaN	NaN	NaN	NaN
